# xmcd
#
# Track frame offsets:
#	150
#	21298
#	38213
#	54496
#	70579
#	87190
#	103671
#	120990
#	141701
#	156736
#	171241
#	186566
#	201760
#	220980
#	234940
#	252148
#	268235
#	284363
#	300933
#
# Disc length: 4201
#
# Revision: 3
# Processed by: cddbd v1.5.1PL0 Copyright (c) Steve Scherf et al.
# Submitted via: audiograbber 1.80
# Normalized: r1:DSETVAR1,TDELIM( - ),TSWAP
#
DISCID=1b106713
DTITLE=Various Artist - Hit Box 2001 Vol 1
DYEAR=1900
DGENRE=
TTITLE0=Garou - Seul
TTITLE1=Isabelle Boulay - Parle-moi
TTITLE2=Eve Angeli - Avant de partir
TTITLE3=Leann Rimes - Can't fight the moonlight
TTITLE4=Jennifer Lopez - Love don't cost a thing
TTITLE5=Destiny's Child - Independent women part 1
TTITLE6=Wu-Tang Clan - Gravel pit
TTITLE7=Sugababes - Overload
TTITLE8=Spooks - Things I've seen
TTITLE9=Fatboy slim feat Macy Gray - Demons
TTITLE10=Craig David - Walking away
TTITLE11=Julie Zenatti - Si je m'en sors
TTITLE12=Patrick Fiori - Juste une raison encore
TTITLE13=Moloko - Indigo
TTITLE14=DJ Jose vs G-Spott - II-Symbols
TTITLE15=Gigi d'Agostino - La passion
TTITLE16=Tranx Mission Meets Parker - It's not unusual
TTITLE17=Bomfunk MC's - Uprocking beats
TTITLE18=Da Muttz - Wassuup!
EXTD=
EXTT0=
EXTT1=
EXTT2=
EXTT3=
EXTT4=
EXTT5=
EXTT6=
EXTT7=
EXTT8=
EXTT9=
EXTT10=
EXTT11=
EXTT12=
EXTT13=
EXTT14=
EXTT15=
EXTT16=
EXTT17=
EXTT18=
PLAYORDER=
